<svg width="10" height="20" viewBox="0 0 10 20" fill="none" xmlns="http://www.w3.org/2000/svg">
<path d="M2.35062 3.87348C2.35062 4.37748 2.35062 6.62708 2.35062 6.62708H0.333252V9.99419H2.35062V20.0001H6.49473V9.99447H9.27562C9.27562 9.99447 9.53606 8.37996 9.66231 6.61466C9.30036 6.61466 6.5104 6.61466 6.5104 6.61466C6.5104 6.61466 6.5104 4.65578 6.5104 4.31243C6.5104 3.96833 6.96223 3.50548 7.40881 3.50548C7.85456 3.50548 8.79533 3.50548 9.66668 3.50548C9.66668 3.04704 9.66668 1.46304 9.66668 0.000122082C8.50345 0.000122082 7.18008 0.000122082 6.59675 0.000122082C2.24819 -0.000110415 2.35062 3.37035 2.35062 3.87348Z" fill="white"/>
</svg>
