<?xml version="1.0" encoding="iso-8859-1"?>
<!-- Generator: Adobe Illustrator 19.0.0, SVG Export Plug-In . SVG Version: 6.00 Build 0)  -->
<svg version="1.1" id="Capa_1" xmlns="http://www.w3.org/2000/svg" xmlns:xlink="http://www.w3.org/1999/xlink" x="0px" y="0px"
	 viewBox="0 0 512 512" style="enable-background:new 0 0 512 512;" xml:space="preserve">
<g>
	<g>
		<path d="M256,0C115.03,0,0,115.049,0,256c0,140.97,115.049,256,256,256c140.97,0,256-115.049,256-256C512,115.03,396.951,0,256,0z
			 M439.195,123.814l-77.426,48.391c-6.46-8.137-13.837-15.514-21.974-21.974l48.391-77.426
			C407.78,86.983,425.017,104.22,439.195,123.814z M361,256c0,57.897-47.103,105-105,105c-57.897,0-105-47.103-105-105
			c0-57.897,47.103-105,105-105C313.897,151,361,198.103,361,256z M256,30c38.595,0,74.957,9.733,106.773,26.861l-48.392,77.427
			C296.703,125.775,276.899,121,256,121s-40.703,4.775-58.381,13.289l-48.392-77.427C181.043,39.733,217.405,30,256,30z
			 M123.814,72.805l48.391,77.426c-8.137,6.46-15.514,13.837-21.974,21.974l-77.426-48.391
			C86.983,104.22,104.22,86.983,123.814,72.805z M30,256c0-38.595,9.733-74.957,26.861-106.773l77.427,48.392
			C125.774,215.297,121,235.101,121,256s4.774,40.703,13.288,58.381l-77.427,48.392C39.733,330.957,30,294.595,30,256z
			 M72.805,388.186l77.426-48.391c6.46,8.137,13.837,15.514,21.974,21.974l-48.391,77.426
			C104.22,425.017,86.983,407.78,72.805,388.186z M256,482c-38.595,0-74.957-9.733-106.773-26.861l48.392-77.427
			C215.297,386.225,235.101,391,256,391s40.703-4.775,58.381-13.289l48.392,77.427C330.957,472.267,294.595,482,256,482z
			 M388.186,439.195l-48.391-77.426c8.137-6.46,15.514-13.837,21.974-21.974l77.426,48.391
			C425.017,407.78,407.78,425.017,388.186,439.195z M377.712,314.381C386.226,296.703,391,276.899,391,256
			s-4.774-40.703-13.288-58.381l77.427-48.392C472.267,181.043,482,217.405,482,256c0,38.595-9.733,74.957-26.861,106.773
			L377.712,314.381z"/>
	</g>
</g>
<g>
</g>
<g>
</g>
<g>
</g>
<g>
</g>
<g>
</g>
<g>
</g>
<g>
</g>
<g>
</g>
<g>
</g>
<g>
</g>
<g>
</g>
<g>
</g>
<g>
</g>
<g>
</g>
<g>
</g>
</svg>
