<svg width="21" height="19" viewBox="0 0 21 19" fill="none" xmlns="http://www.w3.org/2000/svg">
<g clip-path="url(#clip0)">
<path d="M20.0874 7.89531C20.0521 7.47505 19.8399 7.09265 19.4901 6.8185L17.7925 5.48775V1.70626C17.7925 1.41585 17.5351 1.18045 17.2176 1.18045H14.9178C14.6002 1.18045 14.3505 1.41589 14.3505 1.70626V2.78349L11.4407 0.515488C10.7902 0.00579599 9.84593 0.00586607 9.19751 0.51398L1.06948 6.81843C0.350638 7.38173 0.257376 8.37577 0.882954 9.0436C1.35977 9.5507 2.12353 9.71238 2.77464 9.50309V17.5516C2.77464 17.842 3.02441 18.0774 3.34191 18.0774H17.2176C17.5351 18.0774 17.7925 17.842 17.7925 17.5516V9.50319C18.4646 9.72055 19.2123 9.53839 19.6772 9.0429C19.9769 8.7229 20.1226 8.31533 20.0874 7.89531ZM15.4927 2.23208H16.6503V4.58629L15.4927 3.68488V2.23208ZM12.6256 17.0258H7.9416V12.8121H12.6256V17.0258ZM16.6503 17.0258H13.7678V12.2933C13.7678 12.0029 13.5104 11.7674 13.1929 11.7674H7.36662C7.04908 11.7674 6.79935 12.0029 6.79935 12.2933V17.0258H3.91689V8.74677L10.3162 3.78226L16.6503 8.74187V17.0258H16.6503ZM18.8042 8.35831C18.6004 8.57559 18.238 8.60746 17.9932 8.41549L10.6922 2.69196C10.4778 2.52379 10.1615 2.52309 9.94613 2.69021C9.79054 2.81087 2.59708 8.39158 2.56665 8.41521C2.32585 8.60364 1.96169 8.57794 1.75551 8.35859C1.54909 8.13826 1.57699 7.8056 1.81565 7.61854L9.94372 1.31405C10.1607 1.14409 10.4755 1.14406 10.6923 1.31398L18.7418 7.61703C18.9825 7.80564 19.0103 8.13833 18.8042 8.35831Z" fill="#FFB800"/>
<path d="M12.0429 6.43823H8.51646C8.19892 6.43823 7.94919 6.67367 7.94919 6.96405V10.119C7.94919 10.4094 8.19896 10.6448 8.51646 10.6448H12.0429C12.3604 10.6448 12.6178 10.4094 12.6178 10.119V6.96405C12.6178 6.67364 12.3604 6.43823 12.0429 6.43823ZM11.4756 9.59324H9.09141V7.4899H11.4756V9.59324Z" fill="#FFB800"/>
<path d="M10.8928 14.9218C11.2103 14.9218 11.4677 14.6863 11.4677 14.3959C11.4677 14.1055 11.2103 13.8701 10.8928 13.8701C10.5753 13.8701 10.3179 14.1055 10.3179 14.3959C10.3179 14.6863 10.5753 14.9218 10.8928 14.9218Z" fill="#FFB800"/>
</g>
<defs>
<clipPath id="clip0">
<rect width="19.6259" height="17.9491" fill="white" transform="translate(0.466522 0.130127)"/>
</clipPath>
</defs>
</svg>
