<svg width="26" height="18" viewBox="0 0 26 18" fill="none" xmlns="http://www.w3.org/2000/svg">
<path d="M23.8915 0H1.6452C0.754491 0 0.0297852 0.63714 0.0297852 1.42022V15.8343C0.0297852 16.6174 0.754491 17.2545 1.6452 17.2545H23.8915C24.7823 17.2545 25.507 16.6174 25.507 15.8343V1.42022C25.507 0.63714 24.7823 0 23.8915 0ZM21.8181 0.803774L12.7684 6.60278L3.71865 0.803774H21.8181ZM2.89442 16.4508H1.6452C1.25861 16.4508 0.944027 16.1742 0.944027 15.8343V3.34253L2.89442 4.59236V16.4508ZM21.728 16.4508H3.80872V5.17827L12.4992 10.7472C12.5793 10.7986 12.6738 10.8243 12.7684 10.8243C12.8629 10.8243 12.9575 10.7986 13.0376 10.7472L21.728 5.17823V16.4508ZM24.5927 15.8343C24.5927 16.1742 24.2781 16.4508 23.8915 16.4508H22.6423V4.59236L24.5927 3.34253V15.8343ZM24.5927 2.34793L12.7684 9.92506L0.944027 2.34793V1.42022C0.944027 1.08035 1.25861 0.803774 1.6452 0.803774H2.16648L12.4992 7.42488C12.5794 7.47629 12.6738 7.50201 12.7684 7.50201C12.8629 7.50201 12.9574 7.47629 13.0376 7.42488L23.3702 0.803774H23.8915C24.2781 0.803774 24.5927 1.08035 24.5927 1.42022V2.34793H24.5927Z" fill="#FFB800"/>
</svg>
