<svg width="18" height="17" viewBox="0 0 18 17" fill="none" xmlns="http://www.w3.org/2000/svg">
<g clip-path="url(#clip0)">
<path d="M17.2621 11.8922L15.0934 9.90877C14.4955 9.36198 13.5226 9.36198 12.9247 9.90877L11.9389 10.8103C11.486 11.2246 10.7489 11.2244 10.2961 10.8105L6.02338 6.89946C5.56936 6.48423 5.56929 5.81217 6.02338 5.39688C6.18216 5.25166 6.63809 4.83469 7.00914 4.49534C7.60443 3.95094 7.61274 3.06393 7.00856 2.51143L4.84044 0.534786C4.24253 -0.0120073 3.26964 -0.0120073 2.67334 0.533353C2.22712 0.937893 2.08319 1.0684 1.88312 1.24979C-0.273013 3.22167 -0.273013 6.43017 1.88302 8.40198L8.65302 14.5968C10.8142 16.5733 14.3121 16.5735 16.4735 14.5968L17.2621 13.8756C17.86 13.3287 17.86 12.439 17.2621 11.8922ZM3.39466 1.19591C3.59395 1.01365 3.91819 1.01362 4.11813 1.19641L6.28625 3.17306C6.48602 3.35576 6.48602 3.65145 6.28625 3.83418L5.92477 4.16475L3.03505 1.52193L3.39466 1.19591ZM9.37605 13.9358L2.60601 7.74089C0.937868 6.21528 0.846178 3.81972 2.32402 2.19393L5.20536 4.82908C4.44826 5.61401 4.47981 6.81009 5.30032 7.56049L9.57292 11.4713C9.57295 11.4713 9.57302 11.4714 9.57306 11.4714C10.3927 12.2211 11.7004 12.2518 12.5597 11.5584L15.4412 14.1937C13.6691 15.5429 11.0557 15.4719 9.37605 13.9358ZM16.5393 13.2144L16.1778 13.545L13.2862 10.9005L13.6476 10.5699C13.8469 10.3876 14.1712 10.3876 14.3705 10.5699L16.5392 12.5533C16.7385 12.7356 16.7385 13.0322 16.5393 13.2144Z" fill="#FFB800"/>
</g>
<defs>
<clipPath id="clip0">
<rect width="17.4453" height="15.9547" fill="white" transform="translate(0.264618 0.124512)"/>
</clipPath>
</defs>
</svg>
