<svg width="18" height="16" viewBox="0 0 18 16" fill="none" xmlns="http://www.w3.org/2000/svg">
<path d="M17.7137 2.25521C17.3138 2.43256 16.8986 2.57246 16.4726 2.67375C16.942 2.2277 17.2949 1.66978 17.494 1.04704C17.5509 0.869254 17.3578 0.715522 17.1972 0.81071C16.6046 1.16224 15.9662 1.42595 15.2998 1.5946C15.2612 1.60439 15.2213 1.60935 15.1813 1.60935C15.0599 1.60935 14.9419 1.56427 14.849 1.48247C14.14 0.85758 13.2281 0.513428 12.2814 0.513428C11.8717 0.513428 11.4581 0.577282 11.052 0.703234C9.79366 1.09351 8.82278 2.13145 8.51817 3.41204C8.40389 3.89237 8.37295 4.37314 8.42614 4.84097C8.43224 4.89473 8.40683 4.93225 8.39116 4.94985C8.36365 4.9807 8.32463 4.99839 8.28413 4.99839C8.2796 4.99839 8.27495 4.99817 8.27034 4.99773C5.51599 4.74183 3.03223 3.41485 1.27658 1.26129C1.18705 1.15144 1.01537 1.16491 0.944011 1.28731C0.60021 1.87714 0.418523 2.55175 0.418523 3.23821C0.418523 4.29024 0.841187 5.28167 1.57535 6.00443C1.26662 5.93122 0.967797 5.81594 0.69022 5.66176C0.555929 5.58716 0.3907 5.68305 0.388812 5.83665C0.369591 7.39951 1.28461 8.79017 2.65534 9.41637C2.62773 9.41703 2.60013 9.41734 2.57248 9.41734C2.3552 9.41734 2.1352 9.39636 1.91867 9.35498C1.76744 9.3261 1.64039 9.46956 1.68735 9.61619C2.13226 11.0052 3.32824 12.0291 4.75944 12.2615C3.57163 13.0589 2.18839 13.4795 0.74872 13.4795L0.2999 13.4792C0.161616 13.4792 0.0446603 13.5694 0.00942008 13.7033C-0.0252936 13.8352 0.038648 13.9744 0.156569 14.043C1.77885 14.9871 3.62929 15.4861 5.50866 15.4861C7.15372 15.4861 8.69253 15.1596 10.0824 14.5158C11.3565 13.9256 12.4825 13.0819 13.4289 12.0081C14.3106 11.0079 15 9.85321 15.478 8.57622C15.9337 7.35896 16.1745 6.06012 16.1745 4.82008V4.76101C16.1745 4.5619 16.2645 4.37455 16.4216 4.24702C17.0178 3.76296 17.537 3.19314 17.9647 2.55342C18.0776 2.3845 17.8995 2.1728 17.7137 2.25521Z" fill="white"/>
</svg>
