<svg width="24" height="14" viewBox="0 0 24 14" fill="none" xmlns="http://www.w3.org/2000/svg">
<path d="M23.8728 12.5197C23.8437 12.457 23.8166 12.4051 23.7915 12.3635C23.3751 11.6135 22.5793 10.693 21.4047 9.60169L21.3799 9.57669L21.3675 9.56444L21.3549 9.55188H21.3423C20.8093 9.0437 20.4717 8.70201 20.3303 8.52707C20.0716 8.19383 20.0137 7.85652 20.1551 7.51474C20.2549 7.25652 20.6301 6.71118 21.2797 5.87799C21.6214 5.43642 21.892 5.08252 22.0918 4.81589C23.5331 2.89977 24.158 1.67535 23.9663 1.14213L23.8919 1.01753C23.8418 0.942511 23.7127 0.873884 23.5047 0.811297C23.2962 0.748842 23.0297 0.738513 22.7047 0.780135L19.106 0.804995C19.0477 0.784337 18.9645 0.786262 18.856 0.811297C18.7477 0.836332 18.6935 0.848893 18.6935 0.848893L18.6309 0.880187L18.5812 0.917782C18.5395 0.942642 18.4937 0.986366 18.4436 1.04887C18.3939 1.11115 18.3523 1.18424 18.319 1.26752C17.9272 2.27552 17.4817 3.21271 16.9818 4.07903C16.6735 4.59561 16.3904 5.04331 16.1319 5.42237C15.8737 5.80131 15.6571 6.0805 15.4823 6.25946C15.3073 6.4386 15.1493 6.58211 15.0074 6.69052C14.8657 6.79898 14.7575 6.8448 14.6827 6.82804C14.6076 6.81128 14.5369 6.79464 14.47 6.77801C14.3534 6.703 14.2597 6.60097 14.189 6.47186C14.118 6.34275 14.0702 6.18024 14.0452 5.98447C14.0204 5.78857 14.0057 5.62007 14.0015 5.47839C13.9976 5.3369 13.9994 5.13675 14.0078 4.87852C14.0165 4.62017 14.0204 4.44536 14.0204 4.35371C14.0204 4.0371 14.0265 3.69349 14.0389 3.32278C14.0515 2.95207 14.0617 2.65835 14.0703 2.44197C14.0788 2.22537 14.0827 1.9962 14.0827 1.75461C14.0827 1.51301 14.068 1.32355 14.0389 1.18603C14.0102 1.04869 13.9661 0.915375 13.9081 0.786131C13.8496 0.657019 13.7641 0.557142 13.6519 0.48624C13.5395 0.415425 13.3997 0.359228 13.2333 0.317474C12.7917 0.217554 12.2295 0.163502 11.5462 0.155098C9.99683 0.138467 9.00126 0.238518 8.55974 0.455121C8.3848 0.546638 8.22649 0.67168 8.08495 0.829854C7.93496 1.01319 7.91404 1.11325 8.02232 1.1297C8.52223 1.20459 8.87613 1.38373 9.08442 1.66694L9.15948 1.81702C9.21786 1.9253 9.27616 2.117 9.3345 2.39186C9.39275 2.66671 9.43035 2.97076 9.44689 3.30383C9.48847 3.91206 9.48847 4.43271 9.44689 4.86583C9.40518 5.29912 9.36579 5.63644 9.3282 5.87803C9.2906 6.11963 9.23441 6.31539 9.15948 6.4653C9.08442 6.61524 9.03448 6.70689 9.00944 6.74015C8.98445 6.77342 8.96362 6.79438 8.94708 6.80261C8.8388 6.8441 8.72618 6.86524 8.60963 6.86524C8.4929 6.86524 8.35136 6.80685 8.18478 6.69017C8.01825 6.57349 7.84542 6.41321 7.66628 6.20908C7.48714 6.00491 7.28511 5.71959 7.0601 5.35309C6.83527 4.98658 6.60199 4.55342 6.3604 4.0536L6.16052 3.69112C6.03556 3.45793 5.86487 3.11839 5.64827 2.6728C5.43153 2.22703 5.23996 1.79584 5.07343 1.37931C5.00686 1.20437 4.90685 1.07119 4.77358 0.979538L4.71104 0.941942C4.66946 0.908679 4.60272 0.873359 4.51116 0.835719C4.41946 0.798123 4.32379 0.771163 4.22374 0.754575L0.799886 0.779435C0.450013 0.779435 0.21262 0.858697 0.0876216 1.017L0.0375959 1.09189C0.0126049 1.1336 0 1.20021 0 1.2919C0 1.38355 0.024991 1.49603 0.0750167 1.62922C0.574836 2.80392 1.11838 3.93683 1.70564 5.02812C2.29291 6.11941 2.80323 6.99847 3.23631 7.66451C3.66947 8.33104 4.11099 8.9601 4.56087 9.5514C5.01076 10.1429 5.30855 10.522 5.45425 10.6885C5.60012 10.8553 5.7147 10.9801 5.79799 11.0634L6.11045 11.3632C6.31037 11.5632 6.60396 11.8027 6.99135 12.0817C7.37882 12.3609 7.80778 12.6357 8.27845 12.9067C8.7492 13.1772 9.29686 13.398 9.92172 13.5687C10.5465 13.7396 11.1546 13.8082 11.7461 13.7751H13.1832C13.4746 13.75 13.6954 13.6583 13.8455 13.5001L13.8952 13.4375C13.9286 13.3878 13.9599 13.3105 13.9888 13.2066C14.0181 13.1025 14.0326 12.9878 14.0326 12.863C14.0241 12.5048 14.0513 12.1821 14.1136 11.8947C14.1759 11.6074 14.2469 11.3908 14.3263 11.2449C14.4057 11.0992 14.4952 10.9762 14.5949 10.8765C14.6947 10.7766 14.7659 10.716 14.8077 10.6952C14.8491 10.6742 14.8823 10.66 14.9073 10.6515C15.1072 10.5849 15.3425 10.6494 15.6135 10.8453C15.8843 11.0411 16.1383 11.2828 16.3758 11.5701C16.6133 11.8577 16.8985 12.1803 17.2317 12.5384C17.5651 12.8967 17.8566 13.163 18.1064 13.3382L18.3562 13.4882C18.523 13.5882 18.7396 13.6799 19.0063 13.7631C19.2724 13.8464 19.5056 13.8672 19.7058 13.8256L22.9046 13.7757C23.221 13.7757 23.4672 13.7233 23.6419 13.6194C23.8168 13.5152 23.9208 13.4005 23.9543 13.2758C23.9877 13.1508 23.9895 13.0091 23.9607 12.8507C23.931 12.6926 23.9018 12.5821 23.8728 12.5197Z" fill="white"/>
</svg>
